<svg width="25" height="26" viewBox="0 0 25 26" fill="none" xmlns="http://www.w3.org/2000/svg">
<g clip-path="url(#clip0_325_760)">
<path d="M24.3255 11.3738C24.3249 11.3732 24.3243 11.3727 24.3238 11.3721L14.1257 1.17444C13.6911 0.739563 13.1131 0.5 12.4984 0.5C11.8837 0.5 11.3057 0.739372 10.8709 1.17425L0.678172 11.3667C0.674739 11.3702 0.671305 11.3738 0.667872 11.3772C-0.224767 12.275 -0.223241 13.7317 0.672259 14.6272C1.08139 15.0365 1.62174 15.2736 2.19947 15.2984C2.22293 15.3006 2.24658 15.3018 2.27043 15.3018H2.67688V22.8066C2.67688 24.2917 3.88519 25.5 5.37063 25.5H9.36042C9.76478 25.5 10.0928 25.1721 10.0928 24.7676V18.8838C10.0928 18.2061 10.6441 17.6549 11.3217 17.6549H13.675C14.3527 17.6549 14.9039 18.2061 14.9039 18.8838V24.7676C14.9039 25.1721 15.2318 25.5 15.6364 25.5H19.6262C21.1116 25.5 22.3199 24.2917 22.3199 22.8066V15.3018H22.6968C23.3113 15.3018 23.8893 15.0624 24.3243 14.6275C25.2208 13.7305 25.2212 12.2714 24.3255 11.3738Z" fill="#2D60FF"/>
</g>
<defs>
<clipPath id="clip0_325_760">
<rect width="25" height="25" fill="white" transform="translate(0 0.5)"/>
</clipPath>
</defs>
</svg>
