<svg width="25" height="26" viewBox="0 0 25 26" fill="none" xmlns="http://www.w3.org/2000/svg">
<g clip-path="url(#clip0_325_810)">
<path d="M3.92074 10.7275H1.1367C0.509043 10.7275 0 11.2366 0 11.8642V24.3642C0 24.9914 0.509043 25.5004 1.1367 25.5004H3.92074C4.5484 25.5004 5.05692 24.9914 5.05692 24.3642V11.8642C5.05692 11.2366 4.5484 10.7275 3.92074 10.7275Z" fill="#B1B1B1"/>
<path d="M10.5687 14.1357H7.78465C7.15646 14.1357 6.64795 14.6448 6.64795 15.2724V24.3629C6.64795 24.9911 7.15646 25.4996 7.78465 25.4996H10.5687C11.1964 25.4996 11.7049 24.9905 11.7049 24.3629V15.2724C11.7049 14.6448 11.1964 14.1357 10.5687 14.1357Z" fill="#B1B1B1"/>
<path d="M17.2154 14.1357H14.4313C13.8037 14.1357 13.2952 14.6448 13.2952 15.2724V24.3629C13.2952 24.9911 13.8037 25.4996 14.4313 25.4996H17.2154C17.8436 25.4996 18.3521 24.9905 18.3521 24.3629V15.2724C18.3521 14.6448 17.8436 14.1357 17.2154 14.1357Z" fill="#B1B1B1"/>
<path d="M23.8633 10.7275H21.0793C20.4516 10.7275 19.9431 11.2366 19.9431 11.8642V24.3642C19.9431 24.9919 20.4516 25.5004 21.0793 25.5004H23.8633C24.491 25.5004 25 24.9908 25 24.3642V11.8642C25 11.2366 24.491 10.7275 23.8633 10.7275Z" fill="#B1B1B1"/>
<path d="M12.8313 7.3457V9.39145C13.4504 9.35049 14.1031 9.06007 14.1031 8.37868C14.1031 7.67549 13.3877 7.46964 12.8313 7.3457Z" fill="#B1B1B1"/>
<path d="M11.0522 4.89781C11.0522 5.41483 11.4368 5.71377 12.2118 5.86909V4.01855C11.5076 4.0393 11.0522 4.45313 11.0522 4.89781Z" fill="#B1B1B1"/>
<path d="M12.5 0.5C9.05372 0.5 6.25 3.30426 6.25 6.75C6.25 10.1947 9.05372 12.9989 12.5 12.9989C15.9463 12.9989 18.75 10.1947 18.75 6.75C18.75 3.30426 15.9463 0.5 12.5 0.5ZM12.8314 10.4463V11.0862C12.8314 11.2622 12.6963 11.4378 12.5197 11.4378C12.3452 11.4378 12.2117 11.2622 12.2117 11.0862V10.4463C10.4654 10.4037 9.59681 9.36011 9.59681 8.54362C9.59681 8.13138 9.84628 7.89309 10.2367 7.89309C11.3941 7.89309 10.4941 9.31915 12.2117 9.39096V7.23138C10.6798 6.95319 9.75213 6.28138 9.75213 5.13457C9.75213 3.72979 10.9202 3.00532 12.2117 2.96489V2.41383C12.2117 2.23777 12.3452 2.06223 12.5197 2.06223C12.6963 2.06223 12.8314 2.23777 12.8314 2.41383V2.96489C13.6367 2.98617 15.2904 3.49149 15.2904 4.50479C15.2904 4.90745 14.9894 5.14468 14.6378 5.14468C13.9654 5.14468 13.975 4.03989 12.8314 4.01862V5.98191C14.1952 6.27181 15.4032 6.67447 15.4032 8.26596C15.4032 9.65 14.3702 10.3521 12.8314 10.4463Z" fill="#B1B1B1"/>
</g>
<defs>
<clipPath id="clip0_325_810">
<rect width="25" height="25" fill="white" transform="translate(0 0.5)"/>
</clipPath>
</defs>
</svg>
