<svg width="25" height="25" viewBox="0 0 25 25" fill="none" xmlns="http://www.w3.org/2000/svg">
<path fill-rule="evenodd" clip-rule="evenodd" d="M12.5 3C8.21103 3 4.73413 6.35786 4.73413 10.5C4.73413 12.8583 4.14686 15.0814 3.10671 17.0429C2.96862 17.3033 2.96433 17.611 3.09512 17.875C3.22591 18.1389 3.47677 18.3287 3.77339 18.3881C5.15531 18.6652 6.5615 18.8778 7.98841 19.0225C8.19639 21.2525 10.1369 23 12.5 23C14.8632 23 16.8037 21.2525 17.0117 19.0225C18.4386 18.8778 19.8447 18.6652 21.2266 18.3881C21.5232 18.3287 21.7741 18.1389 21.9049 17.875C22.0357 17.611 22.0314 17.3033 21.8933 17.0429C20.8531 15.0814 20.2659 12.8583 20.2659 10.5C20.2659 6.35786 16.789 3 12.5 3ZM9.97523 19.1791C10.8107 19.2262 11.6525 19.25 12.5 19.25C13.3475 19.25 14.1894 19.2261 15.0249 19.1791C14.7638 20.2932 13.7325 21.125 12.5 21.125C11.2676 21.125 10.2363 20.2932 9.97523 19.1791Z" fill="#D7D7D7"/>
</svg>
