<svg width="25" height="26" viewBox="0 0 25 26" fill="none" xmlns="http://www.w3.org/2000/svg">
<g clip-path="url(#clip0_325_736)">
<path d="M14.4923 15.8372C18.6873 15.8372 22.1002 12.3971 22.1002 8.16863C22.1002 3.94019 18.6873 0.5 14.4923 0.5C10.2974 0.5 6.88452 3.94014 6.88452 8.16858C6.88452 12.397 10.2974 15.8372 14.4923 15.8372ZM12.0477 10.5616C12.269 10.2233 12.7227 10.1283 13.061 10.3497C13.5539 10.6722 13.7399 10.7019 14.3903 10.6973C15.0252 10.6931 15.3936 10.2199 15.4672 9.78202C15.503 9.56901 15.5167 9.04886 14.872 8.82097C14.1159 8.55365 13.3421 8.24812 12.8037 7.82586C12.2654 7.4036 12.0188 6.67464 12.1604 5.92358C12.3139 5.10936 12.8818 4.46121 13.6427 4.23205C13.6496 4.23 13.6563 4.22835 13.6632 4.2263V3.94882C13.6632 3.54457 13.9909 3.21684 14.3952 3.21684C14.7994 3.21684 15.1272 3.54457 15.1272 3.94882V4.18018C15.6243 4.29886 15.9715 4.52631 16.1125 4.63167C16.4363 4.87376 16.5026 5.33242 16.2605 5.65625C16.0185 5.98009 15.5598 6.04635 15.236 5.80421C15.086 5.69207 14.6714 5.45101 14.0649 5.63376C13.7106 5.74053 13.6187 6.09013 13.599 6.1947C13.5603 6.4002 13.6037 6.59281 13.7072 6.67391C14.0803 6.96661 14.7521 7.22578 15.3599 7.44064C16.4808 7.83684 17.1041 8.87529 16.9109 10.0247C16.8161 10.5887 16.5323 11.1119 16.1119 11.4981C15.8256 11.7613 15.4923 11.9488 15.1272 12.056V12.3883C15.1272 12.7926 14.7994 13.1203 14.3952 13.1203C13.9909 13.1203 13.6632 12.7926 13.6632 12.3883V12.129C13.1899 12.0716 12.7926 11.9236 12.2595 11.5748C11.9213 11.3535 11.8264 10.8999 12.0477 10.5616Z" fill="#B1B1B1"/>
<path d="M2.77455 18.2969H1.10552C0.70127 18.2969 0.373535 18.6246 0.373535 19.0289V24.7671C0.373535 25.1714 0.70127 25.4991 1.10552 25.4991H2.7746V18.2969H2.77455Z" fill="#B1B1B1"/>
<path d="M24.4121 18.2453C23.0401 16.8733 20.8077 16.8733 19.4358 18.2453L17.2431 20.438L16.3444 21.3367C15.9811 21.6999 15.4885 21.904 14.9748 21.904H10.6047C10.21 21.904 9.87033 21.6007 9.85174 21.2064C9.83193 20.7855 10.1673 20.438 10.5839 20.438H15.0259C15.919 20.438 16.6937 19.8021 16.8472 18.9223C16.8825 18.7203 16.9009 18.5126 16.9009 18.3006C16.9009 17.8956 16.5728 17.567 16.1679 17.567H13.7339C12.9385 17.567 12.1746 17.2062 11.3659 16.8241C10.5176 16.4234 9.64049 16.009 8.61488 15.9408C7.71785 15.881 6.81878 15.9793 5.94249 16.2323C5.00423 16.5032 4.32978 17.3368 4.24799 18.2992C4.24487 18.299 4.2417 18.2989 4.23853 18.2987V25.4962L16.8495 25.4996C17.7166 25.4996 18.5318 25.1619 19.145 24.5488L24.4119 19.2819C24.6983 18.9957 24.6983 18.5316 24.4121 18.2453Z" fill="#B1B1B1"/>
</g>
<defs>
<clipPath id="clip0_325_736">
<rect width="25" height="25" fill="white" transform="translate(0 0.5)"/>
</clipPath>
</defs>
</svg>
