<svg width="25" height="26" viewBox="0 0 25 26" fill="none" xmlns="http://www.w3.org/2000/svg">
<path d="M12.5 0.5C5.6075 0.5 0 6.1075 0 13V13.8925V18V18.1787C0 19.4587 1.12125 20.5 2.5 20.5H3.75C4.44125 20.5 5 19.94 5 19.25V12.8213C5 12.1313 4.44125 11.5713 3.75 11.5713H2.615C3.31 6.73375 7.4725 3 12.5 3C17.5275 3 21.69 6.73375 22.385 11.5713H21.25C20.5588 11.5713 20 12.1313 20 12.8213V18V19.25V20.5C20 21.8787 18.8787 23 17.5 23H15V21.75H10V25.5H12.5H15H17.5C20.2575 25.5 22.5 23.2575 22.5 20.5C23.8787 20.5 25 19.4587 25 18.1787V18V13.8925V13C25 6.1075 19.3925 0.5 12.5 0.5Z" fill="#B1B1B1"/>
</svg>
