<svg width="25" height="20" viewBox="0 0 25 20" fill="none" xmlns="http://www.w3.org/2000/svg">
<path fill-rule="evenodd" clip-rule="evenodd" d="M2.56726 8.50119V16.2524H12.5V18.467H2.3666C1.25838 18.467 0.359985 17.4755 0.359985 16.2524V2.96463C0.359985 1.74152 1.25838 0.75 2.3666 0.75H22.6334C23.7416 0.75 24.64 1.74152 24.64 2.96463V10.7158H22.4327V8.50119H2.56726ZM2.56726 6.28657H22.4327V2.96463H2.56726V6.28657ZM19.7683 16.2524H14.7073V14.0378H19.7683L18.3414 12.6061L19.9022 11.0401L23.9935 15.1451L19.9022 19.25L18.3414 17.684L19.7683 16.2524Z" fill="#FF2F2F"/>
<path fill-rule="evenodd" clip-rule="evenodd" d="M2.56726 8.50119V16.2524H12.5V18.467H2.3666C1.25838 18.467 0.359985 17.4755 0.359985 16.2524V2.96463C0.359985 1.74152 1.25838 0.75 2.3666 0.75H22.6334C23.7416 0.75 24.64 1.74152 24.64 2.96463V10.7158H22.4327V8.50119H2.56726ZM2.56726 6.28657H22.4327V2.96463H2.56726V6.28657ZM19.7683 16.2524H14.7073V14.0378H19.7683L18.3414 12.6061L19.9022 11.0401L23.9935 15.1451L19.9022 19.25L18.3414 17.684L19.7683 16.2524Z" fill="#FF2F2F"/>
</svg>
