<svg width="17" height="19" viewBox="0 0 17 19" fill="none" xmlns="http://www.w3.org/2000/svg">
<path d="M8.35907 18.4551H6.95282C6.25493 18.4551 5.68719 17.8873 5.68719 17.1895V8.4707C5.68719 7.77282 6.25493 7.20508 6.95282 7.20508H8.35907C9.05696 7.20508 9.62469 7.77282 9.62469 8.4707V17.1895C9.62469 17.8873 9.05692 18.4551 8.35907 18.4551Z" fill="#FFBB38"/>
<path d="M3.01532 18.4551H1.60907C0.911184 18.4551 0.343445 17.8873 0.343445 17.1895V11.2832C0.343445 10.5853 0.911184 10.0176 1.60907 10.0176H3.01532C3.71321 10.0176 4.28095 10.5853 4.28095 11.2832V17.1895C4.28095 17.8873 3.71318 18.4551 3.01532 18.4551Z" fill="#FFBB38"/>
<path d="M13.703 18.4551H12.2968C11.5989 18.4551 11.0311 17.8873 11.0311 17.1895V5.51758H10.2584C9.89714 5.51758 9.57891 5.31367 9.42795 4.98545C9.27698 4.65723 9.32926 4.28296 9.56439 4.00864C9.56706 4.00551 9.5698 4.00238 9.57254 3.99932L12.581 0.64218C12.6877 0.523105 12.84 0.455078 12.9999 0.455078C13.1598 0.455078 13.3121 0.523105 13.4188 0.64218L16.4272 3.99932C16.43 4.00238 16.4327 4.00551 16.4354 4.00864C16.6705 4.28293 16.7228 4.65723 16.5718 4.98545C16.4209 5.31367 16.1027 5.51758 15.7414 5.51758H14.9687V17.1895C14.9687 17.8873 14.4009 18.4551 13.703 18.4551Z" fill="#FFBB38"/>
</svg>
