<svg width="18" height="19" viewBox="0 0 18 19" fill="none" xmlns="http://www.w3.org/2000/svg">
<g clip-path="url(#clip0_387_2489)">
<path d="M11.397 5.40369H13.169L13.1385 4.32427H11.6405L13.0484 1.41453L11.4556 1.28125L10.0566 2.35363L10.5231 1.14093L8.89042 0.955078L8.35495 2.47049L7.47501 1.29721L5.05436 1.2132L6.65608 4.32474L5.21017 4.27828V5.40322H6.60352C3.63191 7.14249 1.49097 11.6887 1.49097 14.1446C1.49097 17.2233 4.85303 18.9551 8.99977 18.9551C13.1465 18.9551 16.5086 17.2233 16.5086 14.1446C16.509 11.6887 14.3686 7.14296 11.397 5.40369ZM9.62769 15.6216V16.6874H8.60321V15.6948C7.90301 15.6643 7.22347 15.4747 6.82644 15.2456L7.13993 14.0235C7.57873 14.2643 8.19586 14.483 8.87493 14.483C9.47047 14.483 9.8783 14.253 9.8783 13.8358C9.8783 13.4374 9.54415 13.1863 8.77075 12.9258C7.65194 12.5499 6.88932 12.0266 6.88932 11.0138C6.88932 10.094 7.53743 9.37219 8.65577 9.15349V8.16043H9.68025V9.08028C10.38 9.11219 10.8512 9.25721 11.1956 9.42476L10.8925 10.606C10.6207 10.4915 10.1397 10.2503 9.38741 10.2503C8.70786 10.2503 8.48823 10.5427 8.48823 10.835C8.48823 11.1805 8.85428 11.3996 9.74267 11.7342C10.9858 12.1745 11.488 12.748 11.488 13.6894C11.4885 14.6182 10.8296 15.4127 9.62769 15.6216Z" fill="#559F3C"/>
</g>
<defs>
<clipPath id="clip0_387_2489">
<rect width="18" height="18" fill="white" transform="translate(0 0.955078)"/>
</clipPath>
</defs>
</svg>
